<svg id="Layer_1" data-name="Layer 1" xmlns="http://www.w3.org/2000/svg" viewBox="0 0 765.72 759.71"><defs><style>.cls-1{fill:#5d5c61;}</style></defs><title>DEFAULT STATE</title><g id="DEFAULT_STATE" data-name="DEFAULT STATE"><g id="default_state_icons" data-name="default state icons"><path id="ic_assignment_24px" data-name="ic assignment 24px" class="cls-1" d="M191.09,5.14h-6.56a4.68,4.68,0,0,0-8.84,0h-6.55A3.14,3.14,0,0,0,166,8.27v22a3.14,3.14,0,0,0,3.14,3.13h22a3.14,3.14,0,0,0,3.14-3.13v-22A3.14,3.14,0,0,0,191.09,5.14Zm-11,0a1.57,1.57,0,1,1-1.57,1.56h0a1.56,1.56,0,0,1,1.56-1.56Zm3.14,22h-11V24h11Zm4.7-6.27H172.27V17.68H188Zm0-6.27H172.27V11.41H188Z" transform="translate(0.09 0)"/><path id="ic_account_circle_24px" data-name="ic account circle 24px" class="cls-1" d="M259.68,2a15.68,15.68,0,1,0,15.68,15.68A15.68,15.68,0,0,0,259.68,2Zm0,4.7a4.7,4.7,0,1,1-4.7,4.7h0A4.7,4.7,0,0,1,259.68,6.7Zm0,22.27a11.31,11.31,0,0,1-9.41-5c0-3.12,6.27-4.83,9.41-4.83s9.36,1.71,9.41,4.83a11.29,11.29,0,0,1-9.41,5Z" transform="translate(0.09 0)"/><path id="ic_all_out_24px" data-name="ic all out 24px" class="cls-1" d="M348.82,5.14l6.27,6.27V5.14ZM355.09,24l-6.27,6.27h6.27Zm-18.82,6.27L330,24v6.27ZM330,11.41l6.27-6.27H330Zm20.31-1.49a11,11,0,1,0,0,15.52A11,11,0,0,0,350.31,9.92Zm-1.73,13.8a8.54,8.54,0,1,1,0-12.08h0a8.4,8.4,0,0,1,.34,12A.33.33,0,0,1,348.58,23.72Z" transform="translate(0.09 0)"/><path id="ic_code_24px" data-name="ic code 24px" class="cls-1" d="M176.6,103.3l-7.21-7.21,7.21-7.21-2.19-2.2L165,96.09l9.41,9.41Zm8.15,0L192,96.09l-7.21-7.21,2.2-2.2,9.41,9.41L187,105.5Z" transform="translate(0.09 0)"/><path id="ic_explore_24px" data-name="ic explore 24px" class="cls-1" d="M259.68,94.36a1.73,1.73,0,1,0,1.73,1.73h0a1.73,1.73,0,0,0-1.72-1.73Zm0-14a15.69,15.69,0,1,0,15.68,15.69A15.69,15.69,0,0,0,259.68,80.4Zm3.43,19.12-12.84,6,6-12.84,12.84-6Z" transform="translate(0.09 0)"/><path id="ic_exit_to_app_24px" data-name="ic exit to app 24px" class="cls-1" d="M339.12,101.71l2.21,2.22,7.84-7.84-7.84-7.84-2.21,2.21,4,4.06H328v3.13h15.16Zm14-19.74H331.14A3.14,3.14,0,0,0,328,85.11h0v6.27h3.14V85.11h21.95v22H331.14v-6.27H328v6.27a3.14,3.14,0,0,0,3.13,3.14h22a3.16,3.16,0,0,0,3.14-3.14v-22A3.16,3.16,0,0,0,353.09,82Z" transform="translate(0.09 0)"/><path id="ic_gif_24px" data-name="ic gif 24px" class="cls-1" d="M179.19,176.77h2.36v9.41h-2.36Zm-3.92,0h-4.7a1.58,1.58,0,0,0-1.57,1.57v6.27a1.57,1.57,0,0,0,1.57,1.57h4.7a1.57,1.57,0,0,0,1.57-1.57v-3.14h-2.35v2.36h-3.14v-4.7h5.49v-.79a1.58,1.58,0,0,0-1.57-1.57ZM191,179.13v-2.36h-7v9.41h2.35v-3.13h3.14v-2.36h-3.14v-1.56Z" transform="translate(0.09 0)"/><path id="ic_hourglass_empty_24px" data-name="ic hourglass empty 24px" class="cls-1" d="M251,165.49v9.41h0l0,0,6.27,6.25L251,187.44l0,0h0v9.39h18.82v-9.39h0l0,0-6.28-6.27,6.28-6.25,0,0h0v-9.41Zm15.68,22.74v5.49H254.14v-5.49l6.27-6.27Zm-6.27-7.84-6.27-6.27v-5.49h12.54v5.49Z" transform="translate(0.09 0)"/><path id="ic_flight_takeoff_24px" data-name="ic flight takeoff 24px" class="cls-1" d="M327,191.29h29.79v3.13H327Zm30.68-14.68a2.34,2.34,0,0,0-2.87-1.66h0l-8.33,2.23-10.82-10.09-3,.8,6.5,11.25-7.8,2.08-3.09-2.41-2.27.61,2.85,5,1.21,2.09,2.51-.67,8.33-2.23,6.82-1.82,8.32-2.23a2.38,2.38,0,0,0,1.68-2.9Z" transform="translate(0.09 0)"/><path id="ic_open_in_new_24px" data-name="ic open in new 24px" class="cls-1" d="M191.09,278h-22v-22h11v-3.13h-11a3.13,3.13,0,0,0-3.14,3.13h0v22a3.13,3.13,0,0,0,3.13,3.13h22a3.14,3.14,0,0,0,3.14-3.13V267h-3.14Zm-7.84-25.09v3.13h5.63l-15.42,15.42,2.21,2.21,15.42-15.42v5.63h3.14v-11Z" transform="translate(0.09 0)"/><path id="ic_perm_device_information_24px" data-name="ic perm device information 24px" class="cls-1" d="M261.55,259.14h-3.14v3.13h3.14Zm0,6.27h-3.14v9.41h3.14Zm6.27-15.66-15.68,0a3.15,3.15,0,0,0-3.14,3.14v28.22a3.15,3.15,0,0,0,3.14,3.14h15.68a3.14,3.14,0,0,0,3.13-3.14V252.87a3.13,3.13,0,0,0-3.13-3.13Zm0,28.21H252.14V256h15.68Z" transform="translate(0.09 0)"/><path id="ic_perm_media_24px" data-name="ic perm media 24px" class="cls-1" d="M326.14,257.59H323v7.84h0l0,14.12a3.14,3.14,0,0,0,3.14,3.13h28.22v-3.13H326.14Zm31.36-3.13H345l-3.13-3.14h-9.41a3.13,3.13,0,0,0-3.12,3.14l0,18.82a3.14,3.14,0,0,0,3.14,3.13H357.5a3.14,3.14,0,0,0,3.14-3.13V257.59A3.15,3.15,0,0,0,357.5,254.46ZM334,271.71l7-9.41,5.49,7.07,3.92-4.72,5.49,7.06Z" transform="translate(0.09 0)"/><path id="ic_schedule_24px" data-name="ic schedule 24px" class="cls-1" d="M180.67,338.8a15.69,15.69,0,1,0,15.7,15.69,15.69,15.69,0,0,0-15.7-15.69Zm0,28.23a12.55,12.55,0,1,1,12.55-12.54h0A12.54,12.54,0,0,1,180.69,367Zm.79-20.39h-2.36v9.41l8.24,4.94,1.17-1.93-7.05-4.18Z" transform="translate(0.09 0)"/><path id="ic_redeem_24px" data-name="ic redeem 24px" class="cls-1" d="M272.23,346.69h-3.42a4.69,4.69,0,0,0-8.34-4.16l-.79,1.05-.78-1.06a4.69,4.69,0,0,0-8.34,4.17h-3.42a3.12,3.12,0,0,0-3.13,3.1,0,0,0,0,0,0,0l0,17.25a3.13,3.13,0,0,0,3.11,3.14h25.12a3.12,3.12,0,0,0,3.13-3.11V349.83a3.13,3.13,0,0,0-3.11-3.14Zm-7.84-3.14a1.57,1.57,0,1,1-1.57,1.57h0a1.57,1.57,0,0,1,1.57-1.57Zm-9.41,0a1.57,1.57,0,1,1-1.57,1.57h0A1.57,1.57,0,0,1,255,343.55Zm17.25,23.52H247.14v-3.13h25.09Zm0-7.84H247.14v-9.4h8l-3.26,4.43,2.54,1.84,3.73-5.08,1.57-2.14,1.57,2.14L265,356.1l2.54-1.84-3.26-4.43h8Z" transform="translate(0.09 0)"/><path id="ic_remove_shopping_cart_24px" data-name="ic remove shopping cart 24px" class="cls-1" d="M359.64,370.91l-31.3-31.3-1.2-1.21L326,337.26l-2,2,6.88,6.88,3.47,7.31-2.12,3.84a3.06,3.06,0,0,0-.39,1.51,3.14,3.14,0,0,0,3.14,3.13h11.7l2.16,2.17a3.13,3.13,0,0,0,3.62,5.1,3.25,3.25,0,0,0,.74-.74l4.45,4.45Zm-24-12.12a.4.4,0,0,1-.4-.39h0l.05-.19,1.41-2.56h3.7l3.14,3.14Zm12.74-3.14a3.1,3.1,0,0,0,2.75-1.61l5.61-10.18a1.52,1.52,0,0,0,.19-.75,1.57,1.57,0,0,0-1.57-1.57h-21.1ZM335,363.49a3.14,3.14,0,1,0,3.13,3.13h0a3.13,3.13,0,0,0-3.12-3.13Z" transform="translate(0.09 0)"/><path id="ic_settings_input_composite_24px" data-name="ic settings input composite 24px" class="cls-1" d="M169.27,424.65a1.57,1.57,0,1,0-3.13,0v6.27H163v9.41h9.41v-9.41h-3.14Zm6.27,22a4.71,4.71,0,0,0,3.14,4.42v6.56h3.14V451A4.68,4.68,0,0,0,185,446.6v-3.13h-9.4Zm-12.54,0a4.7,4.7,0,0,0,3.14,4.42v6.56h3.13V451a4.71,4.71,0,0,0,3.14-4.42v-3.13H163Zm31.36-15.68v-6.27a1.57,1.57,0,1,0-3.13,0v6.27h-3.14v9.41h9.41v-9.41Zm-12.54-6.27a1.57,1.57,0,0,0-3.14,0v6.27h-3.13v9.41H185v-9.41h-3.13Zm6.27,22a4.7,4.7,0,0,0,3.13,4.42v6.56h3.14V451a4.68,4.68,0,0,0,3.14-4.42v-3.13h-9.41Z" transform="translate(0.09 0)"/><path id="ic_settings_cell_24px" data-name="ic settings cell 24px" class="cls-1" d="M252.57,459.16h3.13V456h-3.13Zm6.27,0H262V456h-3.14Zm6.27,0h3.14V456h-3.14Zm1.57-37.62H254.14a3.14,3.14,0,0,0-3.14,3.13v25.09a3.15,3.15,0,0,0,3.14,3.14h12.54a3.16,3.16,0,0,0,3.14-3.14V424.66A3.14,3.14,0,0,0,266.68,421.54Zm0,25.08H254.14V427.8h12.54Z" transform="translate(0.09 0)"/><path id="ic_settings_phone_24px" data-name="ic settings phone 24px" class="cls-1" d="M343.68,435.6h-3.13v3.14h3.13Zm6.27,0h-3.13v3.14H350Zm4.7,10.19a17.78,17.78,0,0,1-5.6-.89,1.6,1.6,0,0,0-1.6.37L344,448.72a23.59,23.59,0,0,1-10.32-10.31l3.45-3.47a1.54,1.54,0,0,0,.39-1.58,17.79,17.79,0,0,1-.9-5.6,1.56,1.56,0,0,0-1.56-1.57h-5.49a1.57,1.57,0,0,0-1.57,1.57,26.66,26.66,0,0,0,26.65,26.66h0a1.59,1.59,0,0,0,1.57-1.57v-5.49a1.58,1.58,0,0,0-1.57-1.57Zm-1.56-10.19v3.14h3.14V435.6Z" transform="translate(0.09 0)"/><path id="ic_toc_24px" data-name="ic toc 24px" class="cls-1" d="M166,518H188v-3.13H166Zm0,6.28H188v-3.14H166Zm0,6.27H188v-3.14H166Zm25.09,0h3.14v-3.14h-3.14Zm0-15.68V518h3.14v-3.13Zm0,9.41h3.14v-3.14h-3.14Z" transform="translate(0.09 0)"/><path id="ic_translate_24px" data-name="ic translate 24px" class="cls-1" d="M261.61,527.66l-4-3.94.05,0a27.47,27.47,0,0,0,5.81-10.24h4.6V510.3h-11v-3.13H254v3.13H243v3.12h17.52a24.58,24.58,0,0,1-5,8.4,24.34,24.34,0,0,1-3.63-5.25h-3.13a27.47,27.47,0,0,0,4.67,7.15l-8,7.88,2.22,2.22,7.84-7.84,4.88,4.88Zm8.83-7.95h-3.13l-7.06,18.82h3.14l1.75-4.7h7.45l1.77,4.7h3.14Zm-4.11,11,2.54-6.79,2.54,6.79Z" transform="translate(0.09 0)"/><path id="ic_view_array_24px" data-name="ic view array 24px" class="cls-1" d="M329,532.1h4.7V511.72H329ZM351,511.72V532.1h4.7V511.72ZM335.27,532.1h14.12V511.72H335.27Z" transform="translate(0.09 0)"/><path id="ic_work_24px" data-name="ic work 24px" class="cls-1" d="M193.23,589.3H187v-3.14a3.12,3.12,0,0,0-3.11-3.13h-6.29a3.13,3.13,0,0,0-3.14,3.11v3.16h-6.27a3.12,3.12,0,0,0-3.13,3.1.08.08,0,0,0,0,0l0,17.25a3.12,3.12,0,0,0,3.11,3.13h25.12a3.12,3.12,0,0,0,3.13-3.11V592.44a3.13,3.13,0,0,0-3.11-3.14Zm-9.41,0h-6.27v-3.14h6.27Z" transform="translate(0.09 0)"/><path id="ic_youtube_searched_for_24px" data-name="ic youtube searched for 24px" class="cls-1" d="M267.54,601.83h-1.26l-.42-.43a10.19,10.19,0,1,0-17.92-6.63H244l6,6.27,6.52-6.27h-5.47a7.06,7.06,0,1,1,7.06,7.06h0a7.4,7.4,0,0,1-2.86-.6L253,603.55a10.16,10.16,0,0,0,11.79-1l.43.42v1.24L273,612l2.34-2.32Z" transform="translate(0.09 0)"/><path id="ic_watch_later_24px" data-name="ic watch later 24px" class="cls-1" d="M342.68,583.09a15.69,15.69,0,1,0,15.68,15.68A15.68,15.68,0,0,0,342.68,583.09Zm6.59,22.27-8.16-5v-9.41h2.35v8.16l7.06,4.23Z" transform="translate(0.09 0)"/><path id="ic_bookmark_24px" data-name="ic bookmark 24px" class="cls-1" d="M430.82,3.57H415.14A3.12,3.12,0,0,0,412,6.7l0,25.09,11-4.7,11,4.7V6.7A3.13,3.13,0,0,0,430.82,3.57Z" transform="translate(0.09 0)"/><path id="ic_change_history_24px" data-name="ic change history 24px" class="cls-1" d="M422.68,89.45l10,16h-20l10-16m0-5.91L407,108.63h31.36Z" transform="translate(0.09 0)"/><path id="ic_highlight_off_24px" data-name="ic highlight off 24px" class="cls-1" d="M426.74,174.9,422.68,179l-4.06-4.06-2.21,2.21,4.06,4.06-4.06,4.06,2.21,2.21,4.06-4.06,4.06,4.06,2.21-2.21-4.06-4.06,4.06-4.06Zm-4.06-9.41a15.68,15.68,0,1,0,15.68,15.68,15.68,15.68,0,0,0-15.68-15.68Zm0,28.23a12.55,12.55,0,1,1,12.55-12.55h0A12.56,12.56,0,0,1,422.68,193.72Z" transform="translate(0.09 0)"/><path id="ic_pageview_24px" data-name="ic pageview 24px" class="cls-1" d="M421.9,262.35a3.92,3.92,0,1,0,3.92,3.92h0A3.93,3.93,0,0,0,421.9,262.35Zm13.33-7.84H410.14a3.15,3.15,0,0,0-3.14,3.14v18.81a3.15,3.15,0,0,0,3.14,3.14h25.09a3.14,3.14,0,0,0,3.13-3.14V257.65A3.14,3.14,0,0,0,435.23,254.51Zm-5,22.28-4.56-4.56a6.93,6.93,0,0,1-3.75,1.1A7.1,7.1,0,1,1,429,266.2a7,7,0,0,1-1.1,3.82l4.57,4.55-2.23,2.22Z" transform="translate(0.09 0)"/><path id="ic_perm_scan_wifi_24px" data-name="ic perm scan wifi 24px" class="cls-1" d="M422.82,340.42A30.15,30.15,0,0,0,404,347.05l18.82,23.16,18.81-23.13A30.15,30.15,0,0,0,422.82,340.42Zm1.57,20.38h-3.14v-9.41h3.14Zm-3.14-12.54v-3.14h3.14v3.14Z" transform="translate(0.09 0)"/><path id="ic_settings_input_component_24px" data-name="ic settings input component 24px" class="cls-1" d="M412.27,424.65a1.57,1.57,0,1,0-3.13,0v6.27H406v9.41h9.41v-9.41h-3.14Zm6.27,22a4.71,4.71,0,0,0,3.14,4.42v6.56h3.14V451A4.68,4.68,0,0,0,428,446.6v-3.13h-9.4Zm-12.54,0a4.7,4.7,0,0,0,3.14,4.42v6.56h3.13V451a4.71,4.71,0,0,0,3.14-4.42v-3.13H406Zm31.36-15.68v-6.27a1.57,1.57,0,1,0-3.13,0v6.27h-3.14v9.41h9.41v-9.41Zm-12.54-6.27a1.57,1.57,0,0,0-3.14,0v6.27h-3.13v9.41H428v-9.41h-3.13Zm6.27,22a4.7,4.7,0,0,0,3.13,4.42v6.56h3.14V451a4.68,4.68,0,0,0,3.14-4.42v-3.13h-9.41Z" transform="translate(0.09 0)"/><path id="ic_thumb_down_24px" data-name="ic thumb down 24px" class="cls-1" d="M428,507.17H413.84a3.12,3.12,0,0,0-2.89,1.91l-4.73,11.05a3.05,3.05,0,0,0-.22,1.15v3h0l0,.12a3.15,3.15,0,0,0,3.14,3.14H419l-1.49,7.17-.05.5a2.4,2.4,0,0,0,.69,1.66l1.67,1.64,10.33-10.33a3.13,3.13,0,0,0,.91-2.21V510.3A3.14,3.14,0,0,0,428,507.17Zm6.27,0V526h6.28V507.17Z" transform="translate(0.09 0)"/><path id="ic_backup_24px" data-name="ic backup 24px" class="cls-1" d="M514.34,11.61a11.75,11.75,0,0,0-22-3.14,9.4,9.4,0,0,0,1,18.75h20.38a7.81,7.81,0,0,0,.55-15.61ZM506,16.25v6.27h-6.27V16.25H495l7.84-7.84,7.84,7.84Z" transform="translate(0.09 0)"/><path id="ic_done_24px" data-name="ic done 24px" class="cls-1" d="M497.78,98.73l-6.58-6.59-2.2,2.2,8.78,8.79L516.6,84.31l-2.2-2.2Z" transform="translate(0.09 0)"/><path id="ic_info_outline_24px" data-name="ic info outline 24px" class="cls-1" d="M502.11,186h3.14V176.6h-3.14Zm1.57-23.52a15.68,15.68,0,1,0,15.68,15.68A15.68,15.68,0,0,0,503.68,162.49Zm0,28.23a12.55,12.55,0,1,1,12.55-12.55h0A12.56,12.56,0,0,1,503.68,190.72Zm-1.57-17.25h3.14v-3.14h-3.14Z" transform="translate(0.09 0)"/><path id="ic_lock_24px" data-name="ic lock 24px" class="cls-1" d="M513,259.33h-1.56v-3.14a7.85,7.85,0,0,0-15.69,0v3.14h-1.56a3.14,3.14,0,0,0-3.14,3.13v15.69a3.14,3.14,0,0,0,3.14,3.13H513a3.14,3.14,0,0,0,3.14-3.13V262.46A3.14,3.14,0,0,0,513,259.33Zm-9.4,14.11a3.14,3.14,0,1,1,3.13-3.14h0A3.14,3.14,0,0,1,503.55,273.44Zm4.86-14.11h-9.73v-3.14a4.87,4.87,0,0,1,9.73,0Z" transform="translate(0.09 0)"/><path id="ic_picture_in_picture_alt_24px" data-name="ic picture in picture alt 24px" class="cls-1" d="M514.23,349.92H501.68v9.41h12.55Zm6.27,12.55v-22a3.12,3.12,0,0,0-3.14-3.1H489.14a3.12,3.12,0,0,0-3.14,3.1v22a3.14,3.14,0,0,0,3.14,3.13h28.22A3.14,3.14,0,0,0,520.5,362.47Zm-3.14,0H489.14v-22h28.22Z" transform="translate(0.09 0)"/><path id="ic_store_24px" data-name="ic store 24px" class="cls-1" d="M515.66,424.74H490.57v3.14h25.09Zm1.57,15.69v-3.14l-1.57-7.85H490.57L489,437.29v3.14h1.57v9.4h15.68v-9.4h6.27v9.4h3.14v-9.4Zm-14.12,6.27H493.7v-6.27h9.41Z" transform="translate(0.09 0)"/><path id="ic_view_stream_24px" data-name="ic view stream 24px" class="cls-1" d="M490,529.1h26.66v-9.41H490Zm0-20.38v9.41h26.66v-9.41Z" transform="translate(0.09 0)"/><path id="ic_assignment_late_24px" data-name="ic assignment late 24px" class="cls-1" d="M596.09,3.14h-6.56a4.68,4.68,0,0,0-8.84,0h-6.55A3.14,3.14,0,0,0,571,6.27v22a3.14,3.14,0,0,0,3.14,3.13h22a3.14,3.14,0,0,0,3.14-3.13v-22A3.14,3.14,0,0,0,596.09,3.14Zm-9.41,23.52h-3.13V23.52h3.13Zm0-6.27h-3.13V11h3.13ZM585.11,6.27a1.57,1.57,0,1,1,1.57-1.57A1.56,1.56,0,0,1,585.11,6.27Z" transform="translate(0.09 0)"/><path id="ic_event_seat_24px" data-name="ic event seat 24px" class="cls-1" d="M573.14,103.49v4.7h4.7v-4.7h15.68v4.7h4.7v-9.4H573.14ZM596.66,91h4.7v4.7h-4.7ZM570,91h4.7v4.7H570Zm23.52,4.7H577.84V83.11A3.15,3.15,0,0,1,581,80h9.41a3.14,3.14,0,0,1,3.13,3.14Z" transform="translate(0.09 0)"/><path id="ic_find_in_page_24px" data-name="ic find in page 24px" class="cls-1" d="M598.09,191.07V172.9l-9.41-9.41H576.14a3.13,3.13,0,0,0-3.12,3.14l0,25.09a3.13,3.13,0,0,0,3.12,3.13H595a3.13,3.13,0,0,0,1.87-.62l-7-6.95a7.92,7.92,0,1,1,2.21-2.23Zm-17.25-10.33a4.7,4.7,0,1,0,4.7-4.7,4.69,4.69,0,0,0-4.7,4.7Z" transform="translate(0.09 0)"/><path id="ic_perm_identity_24px" data-name="ic perm identity 24px" class="cls-1" d="M585.55,255.49a3.29,3.29,0,1,1-3.3,3.29,3.29,3.29,0,0,1,3.3-3.29h0m0,14.11c4.65,0,9.56,2.29,9.56,3.29v1.73H576v-1.73c0-1,4.91-3.29,9.56-3.29m0-17.09a6.27,6.27,0,1,0,6.27,6.27h0a6.27,6.27,0,0,0-6.27-6.27Zm0,14.11c-4.19,0-12.55,2.1-12.55,6.27v4.7h25.09v-4.7C598.09,268.72,589.73,266.62,585.55,266.62Z" transform="translate(0.09 0)"/><path id="ic_reorder_24px" data-name="ic reorder 24px" class="cls-1" d="M571,357.21h28.23v-3.14H571Zm0,6.27h28.23v-3.14H571Zm0-12.55h28.23V347.8H571Zm0-9.4v3.13h28.23v-3.13Z" transform="translate(0.09 0)"/><path id="ic_shopping_cart_24px" data-name="ic shopping cart 24px" class="cls-1" d="M579.41,447.72a3.14,3.14,0,1,0,3.14,3.14h0a3.14,3.14,0,0,0-3.13-3.14ZM570,422.64v3.13h3.14l5.64,11.9-2.12,3.85a3,3,0,0,0-.39,1.5,3.16,3.16,0,0,0,3.14,3.14h18.82V443H580.07a.38.38,0,0,1-.39-.38h0l0-.19,1.41-2.56h11.69a3.1,3.1,0,0,0,2.74-1.61l5.61-10.18a1.42,1.42,0,0,0,.19-.75,1.57,1.57,0,0,0-1.57-1.57H576.6l-1.47-3.13Zm25.09,25.08a3.14,3.14,0,1,0,3.14,3.14h0a3.14,3.14,0,0,0-3.13-3.14Z" transform="translate(0.09 0)"/><path id="ic_turned_in_24px" data-name="ic turned in 24px" class="cls-1" d="M592.82,506.7H577.14a3.13,3.13,0,0,0-3.12,3.14l0,25.09,11-4.7,11,4.7V509.84A3.14,3.14,0,0,0,592.82,506.7Z" transform="translate(0.09 0)"/><path id="ic_accessibility_24px" data-name="ic accessibility 24px" class="cls-1" d="M667.11,0A3.14,3.14,0,1,1,664,3.14h0A3.14,3.14,0,0,1,667.11,0Zm14.12,11h-9.41V31.36h-3.14V22h-3.13v9.41h-3.14V11H653V7.84h28.23Z" transform="translate(0.09 0)"/><path id="ic_camera_enhance_24px" data-name="ic camera enhance 24px" class="cls-1" d="M663,80l-2.87,3.14h-5A3.14,3.14,0,0,0,652,86.24v18.82a3.15,3.15,0,0,0,3.14,3.14h25.09a3.14,3.14,0,0,0,3.13-3.14V86.24a3.13,3.13,0,0,0-3.13-3.13h-5L672.39,80Zm4.7,23.52a7.84,7.84,0,1,1,7.84-7.84h0a7.84,7.84,0,0,1-7.84,7.84Zm0-1.56,2-4.32,4.31-2-4.31-2-2-4.31-2,4.31-4.31,2,4.31,2Z" transform="translate(0.09 0)"/><path id="ic_gavel_24px" data-name="ic gavel 24px" class="cls-1" d="M651,193.24h18.82v3.14H651ZM657.66,173l4.44-4.43,22.17,22.18-4.43,4.43Zm11.09-11.08,8.87,8.87-4.44,4.44-8.86-8.88Zm-13.32,13.3,8.87,8.87-4.43,4.44L651,179.62Z" transform="translate(0.09 0)"/><path id="ic_perm_contact_calendar_24px" data-name="ic perm contact calendar 24px" class="cls-1" d="M678.09,252.46h-1.57v-3.14h-3.13v3.14H660.84v-3.14H657.7v3.14h-1.56a3.13,3.13,0,0,0-3.14,3.13h0v22a3.13,3.13,0,0,0,3.13,3.13h22a3.14,3.14,0,0,0,3.14-3.13v-22A3.15,3.15,0,0,0,678.09,252.46Zm-11,4.7a4.7,4.7,0,1,1-4.7,4.7h0A4.71,4.71,0,0,1,667.11,257.16ZM676.52,276H657.7v-1.57c0-3.13,6.27-4.86,9.41-4.86s9.41,1.73,9.41,4.86Z" transform="translate(0.09 0)"/><g id="ic_record_voice_over_24px" data-name="ic record voice over 24px"><circle id="Ellipse_3" data-name="Ellipse 3" class="cls-1" cx="662.65" cy="348.93" r="6.5"/><path id="Path_3" data-name="Path 3" class="cls-1" d="M662.55,358.8c-4.19,0-12.55,2.1-12.55,6.27v3.14h25.09v-3.14C675.09,360.9,666.73,358.8,662.55,358.8Zm12.16-15.11-2.63,2.65a5.19,5.19,0,0,1,0,6.1l2.63,2.65a8,8,0,0,0,.06-11.35Zm5.19-5.27L677.35,341a12.52,12.52,0,0,1,0,16.84l2.55,2.56a15.42,15.42,0,0,0,.16-21.8Z" transform="translate(0.09 0)"/></g><path id="ic_swap_vert_24px" data-name="ic swap vert 24px" class="cls-1" d="M673.25,446.16v-11h-3.14v11h-4.7l6.28,6.26,6.27-6.26Zm-11-22L656,430.45h4.7v11h3.14v-11h4.7Z" transform="translate(0.09 0)"/><path id="ic_update_24px" data-name="ic update 24px" class="cls-1" d="M681.22,517.87H670.59l4.3-4.43a11,11,0,0,0-15.49-.15,10.77,10.77,0,0,0-.11,15.24l.11.11a11,11,0,0,0,15.49,0,10.19,10.19,0,0,0,3.2-7.67h3.14a14.66,14.66,0,0,1-4.14,9.86,14.2,14.2,0,0,1-20,0,13.86,13.86,0,0,1-.16-19.6l.13-.12a14.09,14.09,0,0,1,19.83,0l4.28-4.41Zm-13.32-3.33v6.66l5.49,3.26-1.13,1.9-6.71-4v-7.84Z" transform="translate(0.09 0)"/><path id="ic_assignment_returned_24px" data-name="ic assignment returned 24px" class="cls-1" d="M758.09,5.14h-6.56a4.68,4.68,0,0,0-8.84,0h-6.55A3.14,3.14,0,0,0,733,8.27v22a3.14,3.14,0,0,0,3.14,3.13h22a3.14,3.14,0,0,0,3.14-3.13v-22A3.14,3.14,0,0,0,758.09,5.14Zm-11,0a1.57,1.57,0,1,1-1.57,1.56h0a1.56,1.56,0,0,1,1.56-1.56Zm0,23.52-7.84-7.84H744V14.55h6.27v6.27h4.7Z" transform="translate(0.09 0)"/><path id="ic_chrome_reader_mode_24px" data-name="ic chrome reader mode 24px" class="cls-1" d="M748.82,94.52h11v2.35h-11Zm0-3.92h11V93h-11Zm0,7.84h11v2.35h-11ZM761.36,82H733.14A3.15,3.15,0,0,0,730,85.11v20.38a3.15,3.15,0,0,0,3.14,3.14h28.22a3.15,3.15,0,0,0,3.14-3.14V85.11A3.15,3.15,0,0,0,761.36,82Zm0,23.52H747.25V85.11h14.11Z" transform="translate(0.09 0)"/><path id="ic_face_24px" data-name="ic face 24px" class="cls-1" d="M742,180.78a2,2,0,1,0,2,2A2,2,0,0,0,742,180.78Zm9.41,0a2,2,0,1,0,2,2h0a2,2,0,0,0-2-2Zm-4.71-15.29a15.68,15.68,0,1,0,15.68,15.68A15.68,15.68,0,0,0,746.68,165.49Zm0,28.23a12.56,12.56,0,0,1-12.54-12.55,12.21,12.21,0,0,1,.07-1.35,15.73,15.73,0,0,0,8.17-8.42,15.65,15.65,0,0,0,12.8,6.64,15.48,15.48,0,0,0,3.53-.41,12.53,12.53,0,0,1-12,16.09Z" transform="translate(0.09 0)"/><path id="ic_pan_tool_24px" data-name="ic pan tool 24px" class="cls-1" d="M764.5,256.76V279.5a6.29,6.29,0,0,1-6.27,6.27H746.78a6.26,6.26,0,0,1-4.47-1.87L730,271.39s2-1.93,2-2a1.87,1.87,0,0,1,1.24-.46,2,2,0,0,1,.94.26c.06,0,6.76,3.85,6.76,3.85V254.41a2.35,2.35,0,1,1,4.7-.2v11.17h1.56V250.49a2.35,2.35,0,0,1,4.7-.2.67.67,0,0,1,0,.2v14.9h1.57V252.05a2.35,2.35,0,0,1,4.7-.19.6.6,0,0,1,0,.19v13.33h1.57v-8.62a2.35,2.35,0,0,1,4.7,0Z" transform="translate(0.09 0)"/><path id="ic_question_answer_24px" data-name="ic question answer 24px" class="cls-1" d="M760.79,345.08h-3.13v14.11H737.27v3.14a1.57,1.57,0,0,0,1.57,1.56h17.25l6.27,6.28V346.64A1.56,1.56,0,0,0,760.79,345.08Zm-6.27,9.41V340.37A1.58,1.58,0,0,0,753,338.8H732.57a1.58,1.58,0,0,0-1.57,1.57v22l6.27-6.28H753a1.56,1.56,0,0,0,1.57-1.56Z" transform="translate(0.09 0)"/><path id="ic_supervisor_account_24px" data-name="ic supervisor account 24px" class="cls-1" d="M753.74,440.28a3.92,3.92,0,1,0-3.92-3.92h0a3.9,3.9,0,0,0,3.89,3.92ZM742,438.71a4.7,4.7,0,1,0-4.7-4.7h0a4.68,4.68,0,0,0,4.67,4.7Zm11.76,4.7c-2.87,0-8.63,1.44-8.63,4.31v3.53h17.25v-3.53c0-2.87-5.75-4.31-8.62-4.31ZM742,441.84c-3.66,0-11,1.84-11,5.49v3.92h11v-3.53c0-1.33.51-3.66,3.71-5.44A20.1,20.1,0,0,0,742,441.84Z" transform="translate(0.09 0)"/><path id="ic_view_module_24px" data-name="ic view module 24px" class="cls-1" d="M733,521.13h7.84v-9.41H733Zm0,11h7.84v-9.41H733Zm9.41,0h7.84v-9.41h-7.84Zm9.41,0h7.84v-9.41h-7.84Zm-9.41-11h7.84v-9.41h-7.84Zm9.41-9.41v9.41h7.84v-9.41Z" transform="translate(0.09 0)"/><path id="ic_favorite_24px" data-name="ic favorite 24px" class="cls-1" d="M422.68,611.76l-2.27-2.08c-8.08-7.31-13.41-12.14-13.41-18.07a8.54,8.54,0,0,1,8.46-8.63h.16a9.43,9.43,0,0,1,7.06,3.28,9.43,9.43,0,0,1,7.06-3.28,8.56,8.56,0,0,1,8.62,8.46v.17c0,5.93-5.33,10.76-13.41,18.1Z" transform="translate(0.09 0)"/><path id="ic_favorite_border_24px" data-name="ic favorite border 24px" class="cls-1" d="M510.74,580a9.43,9.43,0,0,0-7.06,3.28,9.43,9.43,0,0,0-7.06-3.28,8.56,8.56,0,0,0-8.62,8.46v.17c0,5.93,5.33,10.76,13.41,18.1l2.27,2,2.27-2.07c8.08-7.32,13.41-12.15,13.41-18.08a8.54,8.54,0,0,0-8.45-8.63Zm-6.9,24.39-.16.16-.16-.16c-7.46-6.76-12.38-11.23-12.38-15.76a5.35,5.35,0,0,1,5.22-5.49h.26a6.11,6.11,0,0,1,5.6,3.7h2.94a6.08,6.08,0,0,1,5.58-3.7,5.37,5.37,0,0,1,5.49,5.23v.26c0,4.53-4.93,9-12.39,15.76Z" transform="translate(0.09 0)"/><path id="ic_settings_24px" data-name="ic settings 24px" class="cls-1" d="M596.91,598.31a10.77,10.77,0,0,0,0-3.07l3.31-2.59a.79.79,0,0,0,.18-1l-3.13-5.43a.79.79,0,0,0-1-.34l-3.9,1.56a11.65,11.65,0,0,0-2.65-1.53l-.6-4.16a.77.77,0,0,0-.77-.66h-6.27a.78.78,0,0,0-.77.66l-.6,4.16a12.51,12.51,0,0,0-2.65,1.53l-3.9-1.56a.75.75,0,0,0-1,.34l-3.14,5.43a.76.76,0,0,0,.19,1l3.31,2.58a11.39,11.39,0,0,0-.11,1.54,11.28,11.28,0,0,0,.11,1.54l-3.31,2.58a.79.79,0,0,0-.19,1l3.14,5.43a.77.77,0,0,0,1,.34l3.9-1.56a11.29,11.29,0,0,0,2.65,1.53l.6,4.16a.78.78,0,0,0,.77.66h6.27a.77.77,0,0,0,.77-.66l.6-4.16a11.65,11.65,0,0,0,2.65-1.53l3.9,1.56a.76.76,0,0,0,1-.34l3.13-5.43a.8.8,0,0,0-.18-1Zm-11.65,4a5.49,5.49,0,1,1,5.48-5.49h0A5.48,5.48,0,0,1,585.26,602.26Z" transform="translate(0.09 0)"/><path id="ic_check_circle_24px" data-name="ic check circle 24px" class="cls-1" d="M667.68,581.09a15.69,15.69,0,1,0,15.68,15.68A15.68,15.68,0,0,0,667.68,581.09Zm-3.13,23.52-7.85-7.84,2.21-2.21,5.63,5.62,11.9-11.9,2.22,2.22Z" transform="translate(0.09 0)"/><path id="ic_visibility_24px" data-name="ic visibility 24px" class="cls-1" d="M747.25,586.07A18.54,18.54,0,0,0,730,597.83a18.53,18.53,0,0,0,34.5,0A18.54,18.54,0,0,0,747.25,586.07Zm0,19.6a7.84,7.84,0,1,1,7.84-7.84h0A7.84,7.84,0,0,1,747.25,605.67Zm0-12.55a4.7,4.7,0,1,0,4.7,4.7,4.7,4.7,0,0,0-4.7-4.7Z" transform="translate(0.09 0)"/><path id="ic_label_24px" data-name="ic label 24px" class="cls-1" d="M187.94,662.24a3.13,3.13,0,0,0-2.55-1.32H168.14a3.14,3.14,0,0,0-3.14,3.12v15.69a3.14,3.14,0,0,0,3.14,3.12h17.25a3.13,3.13,0,0,0,2.55-1.32l6.85-9.65Z" transform="translate(0.09 0)"/><path id="ic_label_outline_24px" data-name="ic label outline 24px" class="cls-1" d="M267.94,662.24a3.13,3.13,0,0,0-2.55-1.32H248.14a3.14,3.14,0,0,0-3.14,3.12v15.69a3.14,3.14,0,0,0,3.14,3.12h17.25a3.13,3.13,0,0,0,2.55-1.32l6.85-9.65Zm-2.55,17.5H248.14V664.05h17.25l5.56,7.84Z" transform="translate(0.09 0)"/><path id="ic_list_24px" data-name="ic list 24px" class="cls-1" d="M328,673.46h3.14v-3.13H328Zm0,6.28h3.14V676.6H328Zm0-12.55h3.14v-3.14H328Zm6.27,6.27h22v-3.13h-22Zm0,6.27h22V676.6h-22Zm0-15.68v3.14h22v-3.14Z" transform="translate(0.09 0)"/><path id="ic_perm_data_setting_24px" data-name="ic perm data setting 24px" class="cls-1" d="M433.78,671.11a13.81,13.81,0,0,1,1.57.11V653.08L404,684.44h18.13a11.73,11.73,0,0,1,11.65-13.33Zm5.82,12.53a4.9,4.9,0,0,0,.06-.77,4,4,0,0,0-.06-.77l1.66-1.3a.4.4,0,0,0,.1-.5l-1.57-2.71a.4.4,0,0,0-.49-.17l-1.94.78a5.76,5.76,0,0,0-1.34-.77l-.3-2.07a.36.36,0,0,0-.37-.32h-3.14a.4.4,0,0,0-.39.32l-.3,2.07a6.85,6.85,0,0,0-1.34.77l-1.94-.78a.42.42,0,0,0-.49.17l-1.56,2.71a.39.39,0,0,0,.09.5l1.66,1.3a6.61,6.61,0,0,0,0,1.54l-1.66,1.3a.41.41,0,0,0-.09.5l1.56,2.71a.42.42,0,0,0,.49.18l1.94-.79a5.42,5.42,0,0,0,1.34.77l.3,2.07a.4.4,0,0,0,.39.33h3.14a.4.4,0,0,0,.39-.33l.3-2.07a5.93,5.93,0,0,0,1.31-.77l2,.79a.41.41,0,0,0,.49-.18l1.57-2.71a.4.4,0,0,0-.1-.5Zm-5.82,1.58a2.35,2.35,0,1,1,2.35-2.35,2.35,2.35,0,0,1-2.35,2.35Z" transform="translate(0.09 0)"/><path id="ic_open_with_24px" data-name="ic open with 24px" class="cls-1" d="M500.11,664.19h6.28v-4.7h4.69l-7.83-7.84-7.84,7.84h4.7Zm-1.56,1.57h-4.71v-4.7L486,668.89l7.84,7.84V672h4.7Zm21.95,3.13-7.84-7.84v4.7H508V672h4.7v4.7Zm-14.11,4.7h-6.28v4.7h-4.7l7.84,7.84,7.84-7.84h-4.7Z" transform="translate(0.09 0)"/><path id="ic_line_weight_24px" data-name="ic line weight 24px" class="cls-1" d="M571,677.74h28.23V674.6H571Zm0,4.7h28.23v-1.57H571Zm0-11h28.23v-4.7H571Zm0-14.11v6.27h28.23v-6.27Z" transform="translate(0.09 0)"/><path id="ic_offline_pin_24px" data-name="ic offline pin 24px" class="cls-1" d="M667.68,654.21a15.69,15.69,0,1,0,15.68,15.69A15.69,15.69,0,0,0,667.68,654.21Zm7.84,25.09H659.84v-3.13h15.68ZM665,673l-5.18-5.17,2.2-2.2,3,3,8.31-8.32,2.2,2.2Z" transform="translate(0.09 0)"/><path id="ic_note_add_24px" data-name="ic note add 24px" class="cls-1" d="M749.68,656.21H737.14a3.13,3.13,0,0,0-3.12,3.14l0,25.09a3.13,3.13,0,0,0,3.12,3.14H756a3.16,3.16,0,0,0,3.14-3.14V665.62Zm3.14,22h-4.7v4.7H745v-4.7h-4.7V675H745v-4.7h3.13V675h4.7Zm-4.7-11v-8.62l8.62,8.62Z" transform="translate(0.09 0)"/><g id="Group_406" data-name="Group 406"><path id="ic_account_balance_24px" data-name="ic account balance 24px" class="cls-1" d="M7.14,14.54v11h4.7v-11Zm9.41,0v11h4.69v-11ZM4,33.36H33.79v-4.7H4ZM26,14.54v11h4.7v-11ZM18.9.43,4,8.27v3.14H33.79V8.27Z" transform="translate(0.09 0)"/><path id="ic_card_giftcard_24px" data-name="ic card giftcard 24px" class="cls-1" d="M31.23,86.68H27.81a4.69,4.69,0,0,0-8.34-4.16l-.79,1L17.9,82.5a4.69,4.69,0,0,0-8.34,4.18H6.14A3.12,3.12,0,0,0,3,89.78a0,0,0,0,0,0,0l0,17.25a3.13,3.13,0,0,0,3.11,3.14H31.23a3.13,3.13,0,0,0,3.13-3.12V89.81a3.12,3.12,0,0,0-3.11-3.13Zm-7.84-3.14a1.57,1.57,0,1,1-1.57,1.57h0a1.56,1.56,0,0,1,1.57-1.56Zm-9.41,0a1.57,1.57,0,1,1-1.57,1.57h0A1.56,1.56,0,0,1,14,83.54Zm17.25,23.52H6.14v-3.13H31.23Zm0-7.84H6.14V89.81h8l-3.26,4.44,2.54,1.84L17.11,91l1.57-2.13L20.25,91,24,96.09l2.54-1.84-3.26-4.44h8Z" transform="translate(0.09 0)"/><path id="ic_fingerprint_24px" data-name="ic fingerprint 24px" class="cls-1" d="M28.23,169.36a.64.64,0,0,1-.36-.09,17.93,17.93,0,0,0-8.74-2.21,17.9,17.9,0,0,0-8.73,2.21A.79.79,0,0,1,9.33,169a.8.8,0,0,1,.32-1.07h0a19.94,19.94,0,0,1,18.94,0,.8.8,0,0,1-.36,1.49ZM5.79,177.6a.86.86,0,0,1-.46-.14.78.78,0,0,1-.19-1.09h0A16.06,16.06,0,0,1,11,171.23a18.06,18.06,0,0,1,16.16,0,16.25,16.25,0,0,1,5.88,5.1.78.78,0,0,1-1.28.9,14.87,14.87,0,0,0-5.32-4.61,16.54,16.54,0,0,0-14.74,0,15,15,0,0,0-5.33,4.64.69.69,0,0,1-.61.33Zm9.8,18.92a.71.71,0,0,1-.55-.23,15.88,15.88,0,0,1-3.15-4.14,13.91,13.91,0,0,1-1.65-6.81,8.69,8.69,0,0,1,8.88-8.45A8.68,8.68,0,0,1,28,185.34a.78.78,0,0,1-.78.79.79.79,0,0,1-.79-.79,7.11,7.11,0,0,0-7.3-6.88,7.12,7.12,0,0,0-7.31,6.88,12.21,12.21,0,0,0,1.46,6,14.69,14.69,0,0,0,2.9,3.8.8.8,0,0,1,0,1.11.85.85,0,0,1-.58.23Zm11.24-2.9a8.37,8.37,0,0,1-8.59-8.28.79.79,0,0,1,1.57,0,6.74,6.74,0,0,0,3,5.58,6.93,6.93,0,0,0,4,1.12,11.11,11.11,0,0,0,1.63-.16.79.79,0,1,1,.33,1.54h-.06a11,11,0,0,1-1.9.19Zm-3.15,3.23a.69.69,0,0,1-.2,0,12.19,12.19,0,0,1-5.83-3.29,11.39,11.39,0,0,1-3.4-8.18,4.72,4.72,0,0,1,4.83-4.61,4.73,4.73,0,0,1,4.83,4.61,3.27,3.27,0,0,0,6.52,0c0-5.92-5.1-10.71-11.37-10.71A11.44,11.44,0,0,0,8.69,181a10.25,10.25,0,0,0-.93,4.39A15.62,15.62,0,0,0,8.82,191a.78.78,0,0,1-.44,1h0a.78.78,0,0,1-1-.45,17.56,17.56,0,0,1-1.14-6.21,11.7,11.7,0,0,1,1.06-5.08,13,13,0,0,1,11.77-7.21c7.14,0,12.94,5.5,12.94,12.28a4.84,4.84,0,0,1-9.66,0,3.15,3.15,0,0,0-3.26-3,3.15,3.15,0,0,0-3.26,3,9.89,9.89,0,0,0,2.93,7.07,10.67,10.67,0,0,0,5.13,2.9.78.78,0,0,1,.55.95h0a.78.78,0,0,1-.74.6Z" transform="translate(0.09 0)"/><path id="ic_markunread_mailbox_24px" data-name="ic markunread mailbox 24px" class="cls-1" d="M31.23,259.14H15.55v9.41H12.41V256h9.41v-6.27H9.27v9.41H6.14A3.14,3.14,0,0,0,3,262.27v18.82a3.15,3.15,0,0,0,3.14,3.14H31.23a3.14,3.14,0,0,0,3.13-3.14V262.27A3.13,3.13,0,0,0,31.23,259.14Z" transform="translate(0.09 0)"/><path id="ic_settings_backup_restore_24px" data-name="ic settings backup restore 24px" class="cls-1" d="M24,354.49a3.14,3.14,0,1,0-3.13,3.14h0A3.14,3.14,0,0,0,24,354.49Zm-3.13-14.11A14.11,14.11,0,0,0,6.7,354.49H2l6.27,6.27,6.27-6.27H9.84a11,11,0,1,1,4.61,8.94l-2.23,2.26a14.11,14.11,0,1,0,8.6-25.31Z" transform="translate(0.09 0)"/><path id="ic_theaters_24px" data-name="ic theaters 24px" class="cls-1" d="M28,426.19v3.14H24.82v-3.14H12.27v3.14H9.14v-3.14H6v28.23H9.14v-3.14h3.13v3.14H24.82v-3.14H28v3.14h3.14V426.19ZM12.27,448.14H9.14V445h3.13Zm0-6.27H9.14v-3.13h3.13Zm0-6.27H9.14v-3.14h3.13ZM28,448.14H24.82V445H28Zm0-6.27H24.82v-3.13H28Zm0-6.27H24.82v-3.14H28Z" transform="translate(0.09 0)"/><path id="ic_timeline_24px" data-name="ic timeline 24px" class="cls-1" d="M36.5,516.45a3.14,3.14,0,0,1-3.14,3.13,2.42,2.42,0,0,1-.8-.11L27,525a2.85,2.85,0,0,1,.11.82,3.14,3.14,0,0,1-6.27,0,2.54,2.54,0,0,1,.11-.82l-4-4a3,3,0,0,1-1.63,0l-7.14,7.15a2.42,2.42,0,0,1,.11.8,3.14,3.14,0,1,1-3.13-3.14h0a3.09,3.09,0,0,1,.8.11l7.15-7.13A2.5,2.5,0,0,1,13,518a3.14,3.14,0,0,1,6.27,0,2.8,2.8,0,0,1-.11.82l4,4a3,3,0,0,1,1.63,0l5.57-5.58a2.42,2.42,0,0,1-.11-.8,3.14,3.14,0,1,1,6.27,0Z" transform="translate(0.09 0)"/><path id="ic_zoom_in_24px" data-name="ic zoom in 24px" class="cls-1" d="M24.6,601.83H23.36l-.44-.43a10.2,10.2,0,1,0-1.1,1.1l.43.44v1.24L30.09,612l2.33-2.33Zm-9.41,0a7.06,7.06,0,1,1,7.06-7.06h0a7.06,7.06,0,0,1-7,7.06Zm3.92-6.27H16v3.13H14.41v-3.13H11.27V594h3.14v-3.14H16V594h3.13Z" transform="translate(0.09 0)"/><path id="ic_invert_colors_24px" data-name="ic invert colors 24px" class="cls-1" d="M27.42,665.09l-8.87-8.88-8.88,8.88a12.54,12.54,0,1,0,17.75,0Zm-8.87,18.28a9.4,9.4,0,0,1-6.65-16l6.65-6.67Z" transform="translate(0.09 0)"/><path id="ic_cloud_done_24px" data-name="ic cloud done 24px" class="cls-1" d="M30.34,741a11.74,11.74,0,0,0-21.95-3.13,9.4,9.4,0,0,0,1,18.75H29.79A7.82,7.82,0,0,0,30.34,741ZM15.68,751.87l-5.49-5.49,2.21-2.21,3.28,3.26,8.12-8.11L26,741.53Z" transform="translate(0.09 0)"/></g><g id="Group_407" data-name="Group 407"><path id="ic_account_balance_wallet_24px" data-name="ic account balance wallet 24px" class="cls-1" d="M111.23,27.09v1.57a3.14,3.14,0,0,1-3.14,3.13h-22A3.13,3.13,0,0,1,83,28.66h0V6.7a3.13,3.13,0,0,1,3.13-3.13h22a3.14,3.14,0,0,1,3.14,3.13V8.27H97.11A3.13,3.13,0,0,0,94,11.4h0V24a3.14,3.14,0,0,0,3.13,3.14h14.12ZM97.11,24h15.68V11.41H97.11ZM103.39,20a2.35,2.35,0,1,1,2.35-2.35h0A2.35,2.35,0,0,1,103.39,20Z" transform="translate(0.09 0)"/><path id="ic_compare_arrows_24px" data-name="ic compare arrows 24px" class="cls-1" d="M93,99.22H82v3.14H93v4.7l6.26-6.27L93,94.51Zm9.38-1.57V93h11V89.81h-11v-4.7l-6.26,6.27Z" transform="translate(0.09 0)"/><path id="ic_important_devices_24px" data-name="ic important devices 24px" class="cls-1" d="M115.07,179.62l-7.84,0a1.58,1.58,0,0,0-1.57,1.57v14.12a1.56,1.56,0,0,0,1.57,1.56h7.84a1.56,1.56,0,0,0,1.56-1.56V181.17a1.55,1.55,0,0,0-1.56-1.55Zm0,14.1h-7.84v-11h7.84Zm-4.71-28.23H82.14A3.13,3.13,0,0,0,79,168.61v18.83a3.13,3.13,0,0,0,3.13,3.14h11v3.14H90v3.13h12.54v-3.13H99.39v-3.14h3.13v-3.14H82.14V168.63h28.22v7.84h3.14v-7.84a3.14,3.14,0,0,0-3.13-3.14Zm-12.59,11-1.52-4.7-1.52,4.7H90l3.87,2.76-1.47,4.56L96.25,181l3.87,2.82-1.47-4.56,3.87-2.76Z" transform="translate(0.09 0)"/><path id="ic_launch_24px" data-name="ic launch 24px" class="cls-1" d="M109.09,278h-22v-22h11v-3.13h-11A3.13,3.13,0,0,0,84,256.05h0v22a3.13,3.13,0,0,0,3.13,3.13h22a3.14,3.14,0,0,0,3.14-3.13V267h-3.14Zm-7.84-25.09v3.13h5.63L91.46,271.47l2.21,2.21,15.42-15.42v5.63h3.14v-11Z" transform="translate(0.09 0)"/><path id="ic_power_settings_new_24px" data-name="ic power settings new 24px" class="cls-1" d="M99.68,340.38H96.55v15.68h3.13Zm7.57,3.4L105,346a10.86,10.86,0,0,1,4.06,8.48A11,11,0,1,1,91.18,346L89,343.78a14.12,14.12,0,1,0,18.28,0Z" transform="translate(0.09 0)"/><path id="ic_stars_24px" data-name="ic stars 24px" class="cls-1" d="M97.67,424.64a15.68,15.68,0,1,0,15.7,15.68,15.68,15.68,0,0,0-15.7-15.68Zm6.64,25.08-6.63-4-6.63,4,1.75-7.54L87,437.12l7.72-.66,3-7.12,3,7.1,7.72.65-5.85,5.07Z" transform="translate(0.09 0)"/><path id="ic_trending_flat_24px" data-name="ic trending flat 24px" class="cls-1" d="M112.79,522.66l-6.27-6.27v4.7H83v3.14h23.52v4.7Z" transform="translate(0.09 0)"/><path id="ic_zoom_out_24px" data-name="ic zoom out 24px" class="cls-1" d="M103.6,601.83h-1.24l-.44-.43a10.2,10.2,0,1,0-1.1,1.1l.43.44v1.24l7.84,7.82,2.33-2.33Zm-9.41,0a7.06,7.06,0,1,1,7.06-7.06h0a7.06,7.06,0,0,1-7,7.06ZM90.27,594h7.84v1.57H90.27Z" transform="translate(0.09 0)"/><path id="ic_payment_24px" data-name="ic payment 24px" class="cls-1" d="M110.23,659.35H85.14a3.11,3.11,0,0,0-3.12,3.1v0l0,18.81a3.13,3.13,0,0,0,3.11,3.14h25.12a3.12,3.12,0,0,0,3.13-3.11V662.49a3.13,3.13,0,0,0-3.11-3.14Zm0,21.95H85.14v-9.4h25.09Zm0-15.68H85.14v-3.13h25.09Z" transform="translate(0.09 0)"/><path id="ic_folder_shared_24px" data-name="ic folder shared 24px" class="cls-1" d="M110.23,734.62H97.68l-3.13-3.14H85.14A3.13,3.13,0,0,0,82,734.62l0,18.82a3.14,3.14,0,0,0,3.14,3.13h25.09a3.13,3.13,0,0,0,3.13-3.13V737.75A3.13,3.13,0,0,0,110.23,734.62Zm-7.84,4.7a3.14,3.14,0,1,1-3.14,3.13h0a3.16,3.16,0,0,1,3.14-3.13Zm6.27,12.54H96.11V750.3c0-2.09,4.19-3.14,6.28-3.14s6.27,1.05,6.27,3.14Z" transform="translate(0.09 0)"/></g><path id="ic_file_upload_24px" data-name="ic file upload 24px" class="cls-1" d="M175.27,751.87h9.41v-9.41H191l-11-11-11,11h6.27ZM169,755H191v3.14H169Z" transform="translate(0.09 0)"/><path id="ic_cloud_circle_24px" data-name="ic cloud circle 24px" class="cls-1" d="M259.68,728.35A15.68,15.68,0,1,0,275.36,744,15.68,15.68,0,0,0,259.68,728.35Zm7.06,21.95H253.41a4.71,4.71,0,1,1,0-9.41l.22,0A6.26,6.26,0,0,1,266,742.46h.79a3.92,3.92,0,1,1,0,7.84Z" transform="translate(0.09 0)"/><path id="ic_cloud_upload_24px" data-name="ic cloud upload 24px" class="cls-1" d="M353.34,741a11.74,11.74,0,0,0-21.95-3.13,9.4,9.4,0,0,0,1,18.75h20.38a7.82,7.82,0,0,0,.55-15.62ZM345,745.6v6.27h-6.27V745.6H334l7.84-7.84,7.84,7.84Z" transform="translate(0.09 0)"/><path id="ic_cloud_24px" data-name="ic cloud 24px" class="cls-1" d="M434.34,741a11.74,11.74,0,0,0-21.95-3.13,9.4,9.4,0,0,0,1,18.75h20.38a7.82,7.82,0,0,0,.55-15.62Z" transform="translate(0.09 0)"/><path id="ic_cloud_queue_24px" data-name="ic cloud queue 24px" class="cls-1" d="M514.34,738a11.74,11.74,0,0,0-22-3.13,9.4,9.4,0,0,0,1,18.75h20.38a7.82,7.82,0,0,0,.55-15.62Zm-.55,12.49H493.41a6.28,6.28,0,0,1,0-12.55h1.11a8.62,8.62,0,0,1,16.92,2.35V741h2.35a4.71,4.71,0,1,1,0,9.41Z" transform="translate(0.09 0)"/><path id="ic_folder_24px" data-name="ic folder 24px" class="cls-1" d="M582.55,729.48h-9.41a3.13,3.13,0,0,0-3.12,3.14l0,18.82a3.14,3.14,0,0,0,3.14,3.13h25.09a3.13,3.13,0,0,0,3.13-3.13V735.75a3.13,3.13,0,0,0-3.13-3.13H585.68Z" transform="translate(0.09 0)"/><path id="ic_cloud_off_24px" data-name="ic cloud off 24px" class="cls-1" d="M678.34,737.39a11.73,11.73,0,0,0-13.77-9.25,11.53,11.53,0,0,0-4,1.61l2.29,2.29a8.62,8.62,0,0,1,12.62,7.64v.78h2.35a4.69,4.69,0,0,1,2.26,8.81l2.28,2.28a7.8,7.8,0,0,0-4-14.16Zm-25.64-7.48,4.31,4.3a9.4,9.4,0,0,0,.39,18.8h18.4l3.14,3.13,2-2L654.7,727.91Zm7.42,7.41,12.55,12.55H657.41a6.28,6.28,0,0,1,0-12.55Z" transform="translate(0.09 0)"/><path id="ic_cloud_download_24px" data-name="ic cloud download 24px" class="cls-1" d="M758.34,741a11.74,11.74,0,0,0-22-3.13,9.4,9.4,0,0,0,1,18.75h20.38a7.82,7.82,0,0,0,.55-15.62Zm-3.68,4.65-7.84,7.84L739,745.6h4.7v-6.28H750v6.27Z" transform="translate(0.09 0)"/></g></g></svg>