<svg xmlns="http://www.w3.org/2000/svg" width="226.943" height="226.992" viewBox="0 0 226.943 226.992">
  <path id="edit-regular" d="M308.57,78.043,165.292,221.321l-49.323,5.456a22.54,22.54,0,0,1-24.88-24.88l5.456-49.323L239.823,9.3a31.844,31.844,0,0,1,45.122,0l23.57,23.57A31.959,31.959,0,0,1,308.57,78.043ZM254.663,94.9l-31.7-31.7L121.588,164.632l-3.983,35.628,35.629-3.983Zm35.356-43.485-23.57-23.57a5.7,5.7,0,0,0-8.075,0L241.514,44.706l31.7,31.7,16.859-16.859A5.814,5.814,0,0,0,290.019,51.417Z" transform="translate(-90.95 0.075)" fill="#fff"/>
</svg>
