<svg xmlns="http://www.w3.org/2000/svg" width="244.041" height="278.904" viewBox="0 0 244.041 278.904">
  <path id="user-regular" d="M170.829,165.6c-15.634,0-23.151,8.716-48.808,8.716S88.9,165.6,73.212,165.6A73.231,73.231,0,0,0,0,238.812v13.945A26.154,26.154,0,0,0,26.147,278.9H217.894a26.154,26.154,0,0,0,26.147-26.147V238.812A73.231,73.231,0,0,0,170.829,165.6Zm47.065,87.158H26.147V238.812a47.147,47.147,0,0,1,47.065-47.065c7.953,0,20.863,8.716,48.808,8.716,28.163,0,40.8-8.716,48.808-8.716a47.147,47.147,0,0,1,47.065,47.065Zm-95.873-95.873A78.442,78.442,0,1,0,43.579,78.442,78.462,78.462,0,0,0,122.021,156.884Zm0-130.736A52.295,52.295,0,1,1,69.726,78.442,52.378,52.378,0,0,1,122.021,26.147Z" fill="#fff"/>
</svg>
